<?xml version="1.0" encoding="utf-8"?>
<!-- Generator: Adobe Illustrator 24.2.0, SVG Export Plug-In . SVG Version: 6.00 Build 0)  -->
<svg version="1.1" id="Layer_1" xmlns="http://www.w3.org/2000/svg" xmlns:xlink="http://www.w3.org/1999/xlink" x="0px" y="0px"
	 viewBox="0 0 432 432" style="enable-background:new 0 0 432 432;" xml:space="preserve">
<style type="text/css">
	.st0{fill:#FFFFFF;}
</style>
<g>
	<g>
		<path class="st0" d="M214.24,229.91c-4.27,0-4.27,51.24-4.27,51.24h8.54C218.51,281.15,218.51,229.91,214.24,229.91z"/>
		<g>
			<path class="st0" d="M144.38,283.13c-0.26,4.26,65.31,8.19,65.31,8.19l0.51-8.52C210.19,282.8,144.63,278.87,144.38,283.13z"/>
			<path class="st0" d="M284.1,283.13c0.26,4.26-65.31,8.19-65.31,8.19l-0.51-8.52C218.29,282.8,283.85,278.87,284.1,283.13z"/>
		</g>
		<path class="st0" d="M237.42,295.38c0,4.8-1.46,14.14-3.96,17.84c-4.17,6.17-11.22,5.34-19.22,5.34c-7.7,0-14.53,1.12-18.74-4.66
			c-2.79-3.83-4.44-13.42-4.44-18.53c0-12.8,10.38-23.18,23.18-23.18C227.04,272.2,237.42,282.58,237.42,295.38z"/>
		<g>
			<ellipse class="st0" cx="316.57" cy="297.23" rx="2.75" ry="4.25"/>
			<ellipse class="st0" cx="111.91" cy="297.23" rx="2.75" ry="4.25"/>
		</g>
		<g>
			<ellipse class="st0" cx="346.54" cy="292.35" rx="2.75" ry="4.25"/>
			<ellipse class="st0" cx="81.94" cy="292.35" rx="2.75" ry="4.25"/>
		</g>
		<g>
			<circle class="st0" cx="150.84" cy="305.17" r="11.05"/>
			<circle class="st0" cx="277.64" cy="305.17" r="11.05"/>
		</g>
		<g>
			<g>
				<path class="st0" d="M33.88,279.37c-0.63,3.93,76.85,19.65,173.06,35.11l2.29-14.24C113.02,284.79,34.51,275.44,33.88,279.37z"
					/>
			</g>
			<g>
				<path class="st0" d="M394.6,279.37c0.63,3.93-76.85,19.65-173.06,35.11l-2.29-14.24C315.46,284.79,393.97,275.44,394.6,279.37z"
					/>
			</g>
		</g>
		<g>
			<g>
				<rect x="178.44" y="307.85" class="st0" width="3.17" height="19.34"/>
				<g>
					<path class="st0" d="M175.22,333.7h-0.41c-1.48,0-2.69-1.21-2.69-2.69v-7.64c0-1.49,1.21-2.69,2.69-2.69h0.41
						c1.48,0,2.69,1.21,2.69,2.69v7.64C177.92,332.49,176.7,333.7,175.22,333.7z"/>
					<path class="st0" d="M185.22,333.7h-0.41c-1.48,0-2.69-1.21-2.69-2.69v-7.64c0-1.49,1.21-2.69,2.69-2.69h0.41
						c1.48,0,2.69,1.21,2.69,2.69v7.64C187.92,332.49,186.71,333.7,185.22,333.7z"/>
				</g>
				
					<rect x="178.44" y="322.19" transform="matrix(6.844790e-10 1 -1 6.844790e-10 507.2097 147.1728)" class="st0" width="3.17" height="10"/>
			</g>
			<g>
				<rect x="246.88" y="307.85" class="st0" width="3.17" height="19.34"/>
				<g>
					<path class="st0" d="M243.66,333.7h-0.41c-1.48,0-2.69-1.21-2.69-2.69v-7.64c0-1.49,1.21-2.69,2.69-2.69h0.41
						c1.48,0,2.69,1.21,2.69,2.69v7.64C246.36,332.49,245.14,333.7,243.66,333.7z"/>
					<path class="st0" d="M253.67,333.7h-0.41c-1.48,0-2.69-1.21-2.69-2.69v-7.64c0-1.49,1.21-2.69,2.69-2.69h0.41
						c1.48,0,2.69,1.21,2.69,2.69v7.64C256.36,332.49,255.15,333.7,253.67,333.7z"/>
				</g>
				
					<rect x="246.88" y="322.19" transform="matrix(6.850536e-10 1 -1 6.850536e-10 575.6508 78.7317)" class="st0" width="3.17" height="10"/>
			</g>
		</g>
		<g>
			<rect x="213.09" y="312.6" class="st0" width="2.3" height="14.06"/>
			<g>
				<path class="st0" d="M210.75,331.4h-0.3c-1.08,0-1.96-0.88-1.96-1.96v-5.56c0-1.08,0.88-1.96,1.96-1.96h0.3
					c1.08,0,1.96,0.88,1.96,1.96v5.56C212.71,330.52,211.83,331.4,210.75,331.4z"/>
				<path class="st0" d="M218.03,331.4h-0.3c-1.08,0-1.96-0.88-1.96-1.96v-5.56c0-1.08,0.88-1.96,1.96-1.96h0.3
					c1.08,0,1.96,0.88,1.96,1.96v5.56C219.98,330.52,219.1,331.4,218.03,331.4z"/>
			</g>
			
				<rect x="213.09" y="323.02" transform="matrix(6.811181e-10 1 -1 6.811181e-10 540.8993 112.4212)" class="st0" width="2.3" height="7.27"/>
		</g>
	</g>
	<path class="st0" d="M385.06,139.39c-1.22-7.32-16.67-20.74-24.4-17.89c-7.73,2.85-75.22,81.72-78.47,78.88
		c-3.25-2.85,2.44-15.04,4.88-25.62c2.44-10.58,10.98-26.42,10.98-31.71c0-5.29-5.69-13.82-13.01-14.23
		c-7.32-0.41-7.73,6.51-9.76,9.35c-2.03,2.85-9.76,7.32-17.89,11.79c-8.13,4.47-23.99,10.98-23.99,10.98s1.52-4.97,3.15-14.32
		c1.63-9.35,0.51-22.57-3.56-29.07c-4.07-6.51-9.76-15.16-29.68-14.75c-19.92,0.41-33.95,18.25-34.76,32.48
		c-0.65,11.3,3.46,23.23,3.46,23.23s-4.88,5.29-15.04,8.54c-10.16,3.25-15.04-1.63-17.89-8.13c-2.85-6.51-3.25-23.99-4.88-28.05
		c-1.63-4.07-9.35-6.1-13.42-2.85c-4.07,3.25-21.96,61.39-26.43,78.07c-4.47,16.67-12.6,40.65-19.11,40.66
		c-2.85,0.01-6.1-16.26-6.91-31.31c-0.81-15.04-0.41-32.93,2.03-49.6c2.44-16.67,9.41-34.06,8.13-39.44
		c-2.03-8.54-15.86-16.26-20.33-13.42c-4.47,2.85-7.32,11.79-10.16,26.02c-2.85,14.23-6.91,45.64-4.88,67.09
		c1.64,17.31,7.92,41.67,17.08,49.2c6.91,5.68,21.55,8.13,29.68-8.94s31.31-97.17,31.31-97.17c3.84,14.47,7.94,23.97,21.55,26.01
		c16.26,2.44,26.43-7.71,26.43-7.71c-2.85,8.95-3.66,19.52-2.85,27.65c0.81,8.13,5.69,18.7,17.89,23.99
		c12.2,5.29,21.96,1.22,32.12-10.57c10.16-11.79,15.45-38.63,15.45-38.63c19.92-9.76,39.4-21.76,39.4-21.76
		c-4.58,10.52-12.16,34.36-12.56,51.44c-0.41,17.08,21.55,19.52,31.71,12.89c10.16-6.63,29.27-33.62,43.51-49.89
		c14.23-16.26,21.14-28.05,24.8-27.65c3.66,0.41,1.22,10.57,0.81,26.83c-0.41,16.26-4.47,36.59-4.47,36.59s-15.04,13.01-35.37,30.49
		c-20.33,17.48-41.19,50.94-44.72,58.96c-10.16,23.05-10.98,41.34-6.1,49.6c5.81,9.84,18.3,19.92,37.41,8.65
		c19.11-11.27,40.66-35.08,61.8-92.81C389.13,195.5,386.28,146.7,385.06,139.39z M203.62,207.81c-12.31,7.87-18.4,1.48-19.21-5.69
		c-0.81-7.18,0.31-17.66,5.9-30.35c0,0,10.47,7.17,31.61-1.36C221.92,170.4,215.93,199.94,203.62,207.81z M226.9,144.12
		c-1.08,8.62-3.15,17.75-3.15,17.75s-11.89,7.87-31,4.21c0,0,2.27-6,5.12-10.47c2.85-4.47,8.3-10.26,9.11-15.14
		c1.01-6.07-5.74-8.07-11.44-6.04c-5.69,2.03-8.08,7.18-16.21,15.65c0,0-5.69-14.64,2.03-26.02c6.61-9.74,14.34-13.42,24.5-13.42
		c8.38,0,14.95,3.71,17.58,9.15C228,129.24,228.15,134.12,226.9,144.12z M333.83,281.81c-13.01,32.12-28.05,72.78-52.04,60.99
		c-23.99-11.79,9.87-71.75,26.43-90.92c15.45-17.89,45.94-44.07,45.94-44.07S346.84,249.69,333.83,281.81z"/>
	<g>
		<path class="st0" d="M86.25,65.54v17.67H83.7V65.54h-6.55V63H92.8v2.54H86.25z"/>
		<path class="st0" d="M144.11,83.21l-4.59-7.07c-0.77-1.17-2.03-1.76-3.78-1.76h-3.03v8.84h-2.51V63h8.57
			c1.68,0,3.14,0.52,4.39,1.56c1.29,1.14,1.93,2.51,1.93,4.13c0,1.33-0.43,2.48-1.3,3.47c-0.83,0.98-1.92,1.65-3.26,1.99
			c0.48,0.04,1.15,0.7,1.99,1.99l4.59,7.07H144.11z M141.34,66.35c-0.71-0.54-1.57-0.81-2.57-0.81h-6.06v6.29h6.06
			c1.02,0,1.88-0.28,2.57-0.84c0.81-0.6,1.21-1.37,1.21-2.31S142.14,66.96,141.34,66.35z"/>
		<path class="st0" d="M197.03,83.21l-1.67-4.53h-8.69l-1.65,4.53h-2.68L189.7,63h2.68l7.36,20.21H197.03z M191.02,66.69l-3.44,9.44
			h6.87L191.02,66.69z"/>
		<path class="st0" d="M242.71,83.21h-2.68L232.66,63h2.68l6.01,16.52L247.36,63h2.71L242.71,83.21z"/>
		<path class="st0" d="M287.2,83.21V63h14.15v2.54h-11.63v6.29h9.09v2.54h-9.09v6.32h11.63v2.51H287.2z"/>
		<path class="st0" d="M339.72,83.21V63h2.51v17.7h9.09v2.51H339.72z"/>
	</g>
</g>
</svg>
